<svg xmlns="http://www.w3.org/2000/svg" viewBox="0 0 800 600"><rect width="800" height="600" fill="#f8fafc"/><rect x="0" y="360" width="800" height="240" fill="#dbeafe"/><path d="M80 350h640v70H80z" fill="#1d4ed8"/><rect x="130" y="130" width="540" height="220" rx="10" fill="#fff"/><rect x="180" y="180" width="440" height="20" rx="10" fill="#bfdbfe"/><rect x="180" y="225" width="330" height="20" rx="10" fill="#bfdbfe"/><circle cx="255" cy="435" r="54" fill="#f1c7a8"/><circle cx="400" cy="435" r="64" fill="#f1c7a8"/><circle cx="545" cy="435" r="54" fill="#f1c7a8"/><path d="M175 600c12-78 42-120 80-120s68 42 80 120H175zm125 0c16-90 54-138 100-138s84 48 100 138H300zm165 0c12-78 42-120 80-120s68 42 80 120H465z" fill="#0f172a"/><circle cx="650" cy="90" r="46" fill="#f5b942"/></svg>
