<svg xmlns="http://www.w3.org/2000/svg" viewBox="0 0 800 600"><rect width="800" height="600" fill="#eff6ff"/><rect x="80" y="80" width="640" height="420" rx="16" fill="#fff"/><rect x="130" y="130" width="250" height="28" rx="14" fill="#2563eb"/><rect x="130" y="185" width="540" height="16" rx="8" fill="#bfdbfe"/><rect x="130" y="225" width="470" height="16" rx="8" fill="#bfdbfe"/><rect x="130" y="265" width="510" height="16" rx="8" fill="#bfdbfe"/><circle cx="245" cy="405" r="55" fill="#f1c7a8"/><circle cx="400" cy="405" r="55" fill="#f1c7a8"/><circle cx="555" cy="405" r="55" fill="#f1c7a8"/><path d="M165 520c13-76 43-114 80-114s67 38 80 114H165zm155 0c13-76 43-114 80-114s67 38 80 114H320zm155 0c13-76 43-114 80-114s67 38 80 114H475z" fill="#1e40af"/></svg>
