<svg xmlns="http://www.w3.org/2000/svg" viewBox="0 0 960 540"><rect width="960" height="540" fill="#dbeafe"/><rect x="85" y="70" width="790" height="320" rx="16" fill="#fff"/><rect x="145" y="125" width="340" height="34" rx="17" fill="#1d4ed8"/><rect x="145" y="195" width="670" height="18" rx="9" fill="#93c5fd"/><rect x="145" y="235" width="560" height="18" rx="9" fill="#93c5fd"/><circle cx="310" cy="410" r="58" fill="#f1c7a8"/><circle cx="480" cy="410" r="58" fill="#f1c7a8"/><circle cx="650" cy="410" r="58" fill="#f1c7a8"/><path d="M220 540c14-76 46-116 90-116s76 40 90 116H220zm170 0c14-76 46-116 90-116s76 40 90 116H390zm170 0c14-76 46-116 90-116s76 40 90 116H560z" fill="#172554"/></svg>
