<svg xmlns="http://www.w3.org/2000/svg" viewBox="0 0 800 600"><rect width="800" height="600" fill="#f1f5f9"/><rect x="0" y="430" width="800" height="170" fill="#e2e8f0"/><rect x="90" y="110" width="620" height="250" rx="14" fill="#fff"/><path d="M150 310l100-110 90 80 85-95 225 125H150z" fill="#93c5fd"/><circle cx="585" cy="160" r="42" fill="#f5b942"/><circle cx="250" cy="430" r="58" fill="#f1c7a8"/><circle cx="400" cy="430" r="58" fill="#f1c7a8"/><circle cx="550" cy="430" r="58" fill="#f1c7a8"/><path d="M170 600c12-78 42-120 80-120s68 42 80 120H170zm150 0c12-78 42-120 80-120s68 42 80 120H320zm150 0c12-78 42-120 80-120s68 42 80 120H470z" fill="#172554"/></svg>
