<svg xmlns="http://www.w3.org/2000/svg" viewBox="0 0 800 600"><rect width="800" height="600" fill="#e0f2fe"/><rect x="80" y="90" width="640" height="380" rx="18" fill="#fff"/><rect x="130" y="145" width="230" height="32" rx="16" fill="#1d4ed8"/><rect x="130" y="210" width="180" height="130" rx="8" fill="#bfdbfe"/><rect x="350" y="210" width="130" height="130" rx="8" fill="#dbeafe"/><rect x="520" y="210" width="130" height="130" rx="8" fill="#bfdbfe"/><circle cx="210" cy="420" r="48" fill="#f1c7a8"/><circle cx="400" cy="420" r="48" fill="#f1c7a8"/><circle cx="590" cy="420" r="48" fill="#f1c7a8"/><path d="M140 600c10-82 37-132 70-132s60 50 70 132H140zm190 0c10-82 37-132 70-132s60 50 70 132H330zm190 0c10-82 37-132 70-132s60 50 70 132H520z" fill="#1e40af"/></svg>
