<svg xmlns="http://www.w3.org/2000/svg" viewBox="0 0 800 600"><rect width="800" height="600" fill="#dbeafe"/><rect y="390" width="800" height="210" fill="#bfdbfe"/><rect x="70" y="110" width="660" height="260" rx="12" fill="#fff"/><rect x="120" y="150" width="300" height="34" rx="17" fill="#1d4ed8"/><rect x="120" y="210" width="520" height="18" rx="9" fill="#93c5fd"/><rect x="120" y="250" width="470" height="18" rx="9" fill="#93c5fd"/><circle cx="180" cy="430" r="58" fill="#f1c7a8"/><circle cx="320" cy="430" r="58" fill="#f1c7a8"/><circle cx="460" cy="430" r="58" fill="#f1c7a8"/><circle cx="600" cy="430" r="58" fill="#f1c7a8"/><path d="M100 600c12-74 42-112 80-112s68 38 80 112H100zm140 0c12-74 42-112 80-112s68 38 80 112H240zm140 0c12-74 42-112 80-112s68 38 80 112H380zm140 0c12-74 42-112 80-112s68 38 80 112H520z" fill="#172554"/></svg>
